<?xml version="1.0" encoding="UTF-8" standalone="no"?>
<svg
   xmlns:dc="http://purl.org/dc/elements/1.1/"
   xmlns:cc="http://creativecommons.org/ns#"
   xmlns:rdf="http://www.w3.org/1999/02/22-rdf-syntax-ns#"
   xmlns:svg="http://www.w3.org/2000/svg"
   xmlns="http://www.w3.org/2000/svg"
   xmlns:sodipodi="http://sodipodi.sourceforge.net/DTD/sodipodi-0.dtd"
   xmlns:inkscape="http://www.inkscape.org/namespaces/inkscape"
   width="82.559036mm"
   height="20.089399mm"
   viewBox="0 0 82.559036 20.089399"
   version="1.1"
   id="svg1026"
   inkscape:version="1.0 (6e3e5246a0, 2020-05-07)"
   sodipodi:docname="logo.svg">
  <defs
     id="defs1020" />
  <sodipodi:namedview
     id="base"
     pagecolor="#ffffff"
     bordercolor="#666666"
     borderopacity="1.0"
     inkscape:pageopacity="0.0"
     inkscape:pageshadow="2"
     inkscape:zoom="0.49497475"
     inkscape:cx="831.91648"
     inkscape:cy="142.00173"
     inkscape:document-units="mm"
     inkscape:current-layer="layer1"
     inkscape:document-rotation="0"
     showgrid="false"
     inkscape:pagecheckerboard="false"
     fit-margin-top="0"
     fit-margin-left="0"
     fit-margin-right="0"
     fit-margin-bottom="0"
     inkscape:window-width="1920"
     inkscape:window-height="1052"
     inkscape:window-x="0"
     inkscape:window-y="0"
     inkscape:window-maximized="1" />
  <metadata
     id="metadata1023">
    <rdf:RDF>
      <cc:Work
         rdf:about="">
        <dc:format>image/svg+xml</dc:format>
        <dc:type
           rdf:resource="http://purl.org/dc/dcmitype/StillImage" />
        <dc:title></dc:title>
      </cc:Work>
    </rdf:RDF>
  </metadata>
  <g
     inkscape:label="Layer 1"
     inkscape:groupmode="layer"
     id="layer1"
     transform="translate(168.27952,-54.41407)">
    <g
       transform="translate(-38.500907,-222.36694)"
       id="g1156">
      <path
         sodipodi:nodetypes="cssssssssscssscssccscssscsssssccsscssscssssssccssssscsssc"
         d="m -122.86068,276.78124 c -0.53419,0.28134 -1.02995,0.58024 -1.48849,0.89447 -0.45854,0.31427 -0.8798,0.64366 -1.26525,0.98582 -0.38546,0.3422 -0.73489,0.69717 -1.04983,1.06232 -0.31495,0.36517 -0.59518,0.7408 -0.8422,1.12397 -0.49404,0.76643 -0.85497,1.56406 -1.09277,2.37284 -0.23778,0.80882 -0.35298,1.62916 -0.35514,2.44078 -0.002,0.81158 0.10875,1.61441 0.32158,2.38923 0.21285,0.77477 0.52784,1.5215 0.93509,2.21986 0.40725,0.69837 0.9067,1.34873 1.48771,1.93104 0.58102,0.58232 1.24374,1.09624 1.97788,1.52282 -0.64084,-0.0982 -1.20415,-0.25265 -1.71405,-0.46206 -0.50991,-0.2094 -0.96671,-0.47344 -1.3956,-0.79148 -0.42891,-0.31799 -0.82922,-0.68977 -1.22703,-1.11383 -0.39779,-0.42401 -0.79321,-0.9009 -1.20983,-1.42837 0.36476,0.60228 0.74517,1.1487 1.13724,1.64302 0.39208,0.49431 0.7964,0.93703 1.20985,1.33083 0.41344,0.3938 0.83558,0.73892 1.26448,1.0397 2.98518,1.90905 7.43224,1.98947 10.58724,0.0121 0.59555,-0.37651 1.11555,-0.79164 1.54079,-1.20826 0.42521,-0.41658 0.75598,-0.83412 0.97255,-1.21454 -0.26566,0.76016 -0.54211,1.36504 -0.84455,1.87253 -0.30245,0.50751 -0.6319,0.91737 -1.00299,1.28632 -0.37107,0.36894 -0.7836,0.69692 -1.25511,1.04125 -0.47153,0.34437 -1.00174,0.705 -1.60556,1.13881 0.55984,-0.22611 1.08336,-0.47349 1.57121,-0.73998 0.48784,-0.26647 0.94019,-0.55149 1.35814,-0.85309 0.41796,-0.30165 0.80118,-0.61992 1.1513,-0.9515 0.35012,-0.33157 0.66712,-0.67707 0.95149,-1.03341 0.56869,-0.71276 1.00813,-1.47035 1.32613,-2.25108 0.31804,-0.78078 0.5148,-1.58512 0.59868,-2.39239 0.0832,-0.80731 0.0542,-1.61725 -0.0789,-2.40952 -0.13367,-0.79224 -0.37231,-1.56678 -0.70717,-2.30259 -0.33484,-0.73581 -0.76616,-1.4329 -1.28555,-2.07076 -0.51942,-0.63786 -1.12728,-1.21645 -1.81475,-1.71485 0.62773,0.16215 1.17319,0.37251 1.65943,0.63224 0.48624,0.25968 0.91347,0.56849 1.30819,0.92808 0.39465,0.35954 0.75608,0.76968 1.10915,1.23167 0.35306,0.4619 0.6978,0.97636 1.05919,1.54312 -0.30225,-0.63598 -0.62525,-1.2179 -0.96553,-1.74918 -0.34029,-0.53126 -0.69844,-1.01216 -1.07013,-1.44556 -0.37169,-0.43344 -0.75643,-0.81981 -1.15284,-1.16222 -0.39645,-0.34245 -0.80392,-0.64094 -1.21843,-0.89918 -0.41449,-0.25829 -0.83619,-0.47629 -1.26213,-0.65724 -0.42596,-0.18096 -0.85639,-0.32515 -1.28712,-0.43553 -0.8615,-0.2208 -1.72571,-0.30736 -2.56642,-0.28726 -0.0314,0 -0.0604,0.009 -0.0914,0.0121 -0.0542,-0.005 -0.10935,-0.009 -0.16235,-0.008 -0.42761,0.0151 -0.84528,0.0618 -1.25042,0.13655 -0.81032,0.14968 -1.57214,0.41026 -2.26981,0.74229 -0.69769,0.33201 -1.33118,0.73544 -1.8858,1.17004 -0.55461,0.43457 -1.0301,0.90003 -1.41121,1.35737 -0.3811,0.45727 -0.66816,0.90639 -0.84532,1.30662 0.18775,-0.78301 0.40196,-1.41288 0.65175,-1.94824 0.2498,-0.53539 0.53592,-0.97634 0.86796,-1.38078 0.33203,-0.40443 0.70982,-0.77213 1.14428,-1.16222 0.43445,-0.39008 0.92519,-0.80251 1.48224,-1.2949 z"
         style="fill:#f7931a;fill-opacity:1;stroke:none;stroke-width:0.391486;stroke-linecap:round;stroke-linejoin:round;stroke-miterlimit:4;stroke-dasharray:none;stroke-opacity:1"
         id="path1152" />
      <path
         d="m -115.82503,285.20852 c 0.173,-1.15626 -0.70737,-1.77782 -1.91113,-2.19248 l 0.39048,-1.56629 -0.9534,-0.23759 -0.38016,1.52499 c -0.25066,-0.0624 -0.50807,-0.12128 -0.76389,-0.17975 l 0.38289,-1.53506 -0.95286,-0.23761 -0.39076,1.56575 c -0.20746,-0.0471 -0.41111,-0.094 -0.6088,-0.14319 l 10e-4,-0.006 -1.31483,-0.32831 -0.25364,1.01832 c 0,0 0.70739,0.16212 0.69245,0.17215 0.38614,0.0965 0.45594,0.35195 0.44425,0.55451 l -0.44478,1.78436 c 0.0266,0.008 0.061,0.0165 0.0991,0.0317 -0.0317,-0.009 -0.0657,-0.0165 -0.10075,-0.0249 l -0.62349,2.49961 c -0.0471,0.11721 -0.16701,0.29327 -0.43692,0.22646 0.009,0.0151 -0.69299,-0.17298 -0.69299,-0.17298 l -0.47331,1.09137 1.24068,0.30928 c 0.23084,0.0578 0.45703,0.11857 0.6797,0.17542 l -0.39456,1.58422 0.95232,0.23761 0.39077,-1.5674 c 0.26014,0.0705 0.51267,0.13579 0.75979,0.19716 l -0.38939,1.56003 0.95339,0.2376 0.39455,-1.58121 c 1.62576,0.30766 2.84827,0.18356 3.36287,-1.28687 0.41465,-1.18395 -0.0207,-1.8669 -0.87602,-2.31223 0.62292,-0.14365 1.09217,-0.55341 1.21735,-1.39983 z m -2.17834,3.05464 c -0.29462,1.18395 -2.28807,0.5439 -2.93436,0.38343 l 0.52355,-2.0988 c 0.64629,0.16132 2.71874,0.48065 2.41081,1.71537 z m 0.2949,-3.07174 c -0.26883,1.07696 -1.92798,0.52978 -2.4662,0.39563 l 0.47467,-1.90353 c 0.5382,0.13413 2.2715,0.3845 1.99153,1.5079 z"
         fill="#ffffff"
         id="path1154"
         style="stroke-width:0.271546" />
    </g>
    <text
       id="text1160"
       y="68.619431"
       x="-145.18329"
       style="font-style:normal;font-weight:normal;font-size:11.0951px;line-height:1.25;font-family:sans-serif;fill:#4d4d4d;fill-opacity:1;stroke:none;stroke-width:0.277379"
       xml:space="preserve"><tspan
         style="font-style:italic;font-variant:normal;font-weight:bold;font-stretch:normal;font-family:'Open Sans';-inkscape-font-specification:'Open Sans Bold Italic';fill:#4d4d4d;fill-opacity:1;stroke-width:0.277379"
         y="68.619431"
         x="-145.18329"
         id="tspan1158"
         sodipodi:role="line">btcTornado</tspan></text>
  </g>
</svg>
