<?xml version="1.0" encoding="UTF-8" standalone="no"?>
<svg
   xmlns:dc="http://purl.org/dc/elements/1.1/"
   xmlns:cc="http://creativecommons.org/ns#"
   xmlns:rdf="http://www.w3.org/1999/02/22-rdf-syntax-ns#"
   xmlns:svg="http://www.w3.org/2000/svg"
   xmlns="http://www.w3.org/2000/svg"
   xmlns:sodipodi="http://sodipodi.sourceforge.net/DTD/sodipodi-0.dtd"
   xmlns:inkscape="http://www.inkscape.org/namespaces/inkscape"
   sodipodi:docname="logo.svg"
   inkscape:version="1.0 (6e3e5246a0, 2020-05-07)"
   id="svg1026"
   version="1.1"
   viewBox="0 0 64.834682 17.433391"
   height="0.68635398in"
   width="2.5525465in">
  <defs
     id="defs1020" />
  <sodipodi:namedview
     inkscape:window-maximized="1"
     inkscape:window-y="0"
     inkscape:window-x="0"
     inkscape:window-height="1052"
     inkscape:window-width="1920"
     fit-margin-bottom="0"
     fit-margin-right="0"
     fit-margin-left="0"
     fit-margin-top="0"
     inkscape:pagecheckerboard="false"
     showgrid="false"
     inkscape:document-rotation="0"
     inkscape:current-layer="layer1"
     inkscape:document-units="mm"
     inkscape:cy="58.797729"
     inkscape:cx="158.54287"
     inkscape:zoom="3.959798"
     inkscape:pageshadow="2"
     inkscape:pageopacity="0.0"
     borderopacity="1.0"
     bordercolor="#666666"
     pagecolor="#ffffff"
     id="base"
     units="in" />
  <metadata
     id="metadata1023">
    <rdf:RDF>
      <cc:Work
         rdf:about="">
        <dc:format>image/svg+xml</dc:format>
        <dc:type
           rdf:resource="http://purl.org/dc/dcmitype/StillImage" />
        <dc:title></dc:title>
      </cc:Work>
    </rdf:RDF>
  </metadata>
  <g
     transform="translate(162.91691,-56.425091)"
     id="layer1"
     inkscape:groupmode="layer"
     inkscape:label="Layer 1">
    <g
       transform="matrix(0.82303869,0,0,0.82303869,-24.416358,11.527576)"
       id="g920">
      <path
         id="path1152"
         style="fill:#f35c21;fill-opacity:1;stroke:none;stroke-width:0.412773;stroke-linecap:round;stroke-linejoin:round;stroke-miterlimit:4;stroke-dasharray:none;stroke-opacity:1"
         d="m -160.98542,54.551119 c -0.56324,0.296638 -1.08596,0.611791 -1.56943,0.943108 -0.48347,0.331358 -0.92764,0.678659 -1.33405,1.039425 -0.40642,0.360807 -0.77485,0.735079 -1.10691,1.120084 -0.33208,0.385026 -0.62755,0.781082 -0.888,1.185087 -0.5209,0.808105 -0.90146,1.649107 -1.15219,2.501865 -0.25071,0.8528 -0.37217,1.717746 -0.37445,2.573499 -0.002,0.85571 0.11466,1.702195 0.33907,2.519146 0.22442,0.816899 0.55654,1.604233 0.98593,2.340567 0.4294,0.736344 0.956,1.422068 1.56861,2.036041 0.61261,0.613985 1.31137,1.155849 2.08543,1.605625 -0.67569,-0.10354 -1.26963,-0.266388 -1.80726,-0.487185 -0.53763,-0.220786 -1.01927,-0.499184 -1.47148,-0.834517 -0.45224,-0.335281 -0.87431,-0.727277 -1.29375,-1.174396 -0.41942,-0.447065 -0.83635,-0.949887 -1.27562,-1.506038 0.38459,0.635029 0.78569,1.211161 1.19908,1.73236 0.4134,0.521189 0.8397,0.987982 1.27563,1.403195 0.43593,0.415213 0.88102,0.779099 1.33324,1.096235 3.1475,2.012856 7.83638,2.097648 11.16293,0.01276 0.62793,-0.396983 1.17621,-0.834686 1.62457,-1.27396 0.44833,-0.439231 0.79709,-0.879475 1.02544,-1.280581 -0.28011,0.801494 -0.57159,1.439265 -0.89048,1.97435 -0.31889,0.535106 -0.66626,0.967253 -1.05753,1.356265 -0.39124,0.389001 -0.8262,0.734815 -1.32335,1.097869 -0.49717,0.363095 -1.05621,0.743334 -1.69287,1.200733 0.59029,-0.238405 1.14227,-0.499236 1.65665,-0.780217 0.51437,-0.280959 0.99131,-0.581477 1.43199,-0.899477 0.44069,-0.318053 0.84474,-0.653629 1.2139,-1.003239 0.36916,-0.349599 0.7034,-0.713886 1.00323,-1.089602 0.59961,-0.751517 1.06295,-1.550302 1.39824,-2.373484 0.33533,-0.823236 0.54279,-1.671312 0.63123,-2.522478 0.0877,-0.851208 0.0572,-1.70519 -0.0832,-2.54054 -0.14094,-0.835319 -0.39255,-1.651975 -0.74562,-2.427795 -0.35305,-0.77582 -0.80782,-1.510815 -1.35545,-2.183359 -0.54767,-0.672544 -1.18858,-1.282595 -1.91343,-1.808096 0.66186,0.170967 1.23698,0.392765 1.74966,0.666618 0.51268,0.2738 0.96314,0.599402 1.37933,0.978545 0.4161,0.37909 0.79719,0.811532 1.16946,1.298643 0.37225,0.487016 0.73574,1.029451 1.11678,1.627029 -0.31868,-0.670562 -0.65925,-1.284125 -1.01803,-1.844293 -0.35879,-0.560148 -0.73642,-1.067197 -1.12832,-1.524164 -0.3919,-0.457009 -0.79756,-0.864388 -1.21553,-1.225416 -0.418,-0.361071 -0.84763,-0.675792 -1.28468,-0.948074 -0.43703,-0.272335 -0.88166,-0.502189 -1.33076,-0.692978 -0.44912,-0.1908 -0.90296,-0.34283 -1.35711,-0.459212 -0.90834,-0.232806 -1.81954,-0.324073 -2.70597,-0.30288 -0.0331,0 -0.0637,0.0095 -0.0964,0.01276 -0.0571,-0.0053 -0.11529,-0.0095 -0.17118,-0.0084 -0.45086,0.01592 -0.89124,0.06516 -1.31841,0.143975 -0.85438,0.157819 -1.65763,0.432568 -2.39323,0.782652 -0.73563,0.350064 -1.40357,0.77543 -1.98834,1.233662 -0.58477,0.4582 -1.08612,0.94897 -1.48795,1.431178 -0.40182,0.482135 -0.70449,0.955676 -0.89128,1.377669 0.19796,-0.825587 0.42381,-1.489707 0.68719,-2.054177 0.26338,-0.564503 0.56506,-1.02943 0.91515,-1.455861 0.35009,-0.426422 0.74842,-0.814116 1.2065,-1.225417 0.45808,-0.411291 0.9755,-0.846147 1.56284,-1.365311 z"
         sodipodi:nodetypes="cssssssssscssscssccscssscsssssccsscssscssssssccssssscsssc" />
      <path
         style="stroke-width:0.286312"
         id="path1154"
         fill="#ffffff"
         d="m -153.5672,63.5509 c 0.1824,-1.219133 -0.74584,-1.874491 -2.01505,-2.311698 l 0.41171,-1.651458 -1.00524,-0.250509 -0.40083,1.607912 c -0.26429,-0.06579 -0.5357,-0.127875 -0.80543,-0.189524 l 0.40371,-1.61853 -1.00467,-0.25053 -0.41201,1.650889 c -0.21874,-0.04966 -0.43347,-0.09911 -0.6419,-0.150977 l 0.001,-0.0063 -1.38633,-0.346162 -0.26743,1.073692 c 0,0 0.74586,0.170935 0.73011,0.181511 0.40713,0.101747 0.48073,0.371087 0.4684,0.584662 l -0.46896,1.881386 c 0.028,0.0084 0.0643,0.0174 0.10449,0.03342 -0.0334,-0.0095 -0.0693,-0.0174 -0.10623,-0.02625 l -0.6574,2.635529 c -0.0497,0.123583 -0.17609,0.309216 -0.46067,0.238774 0.009,0.01592 -0.73068,-0.182386 -0.73068,-0.182386 l -0.49904,1.150714 1.30814,0.326097 c 0.24339,0.06094 0.48188,0.125017 0.71666,0.184959 l -0.41601,1.670363 1.0041,0.25053 0.41202,-1.652629 c 0.27428,0.07433 0.54054,0.143174 0.8011,0.207881 l -0.41056,1.644858 1.00523,0.25052 0.416,-1.66719 c 1.71416,0.324389 3.00315,0.193541 3.54573,-1.356844 0.4372,-1.248329 -0.0218,-1.968414 -0.92365,-2.43796 0.65679,-0.151461 1.15155,-0.583502 1.28354,-1.475946 z m -2.29679,3.220738 c -0.31064,1.248328 -2.41249,0.573475 -3.09392,0.404279 l 0.55202,-2.212924 c 0.68143,0.170092 2.86657,0.506786 2.5419,1.808645 z m 0.31093,-3.238768 c -0.28344,1.13552 -2.03281,0.558587 -2.6003,0.417143 l 0.50048,-2.007036 c 0.56747,0.141423 2.39502,0.405407 2.09982,1.589893 z" />
    </g>
    <text
       xml:space="preserve"
       style="font-style:normal;font-weight:normal;font-size:8.4788px;line-height:1.25;font-family:sans-serif;fill:#4d4d4d;fill-opacity:1;stroke:none;stroke-width:0.211972"
       x="-143.5233"
       y="66.818031"
       id="text1160"><tspan
         sodipodi:role="line"
         id="tspan1158"
         x="-143.5233"
         y="66.818031"
         style="font-style:italic;font-variant:normal;font-weight:bold;font-stretch:normal;font-family:'Open Sans';-inkscape-font-specification:'Open Sans Bold Italic';fill:#4d4d4d;fill-opacity:1;stroke-width:0.211972">btcTornado</tspan></text>
    <text
       id="text910"
       y="71.492294"
       x="-143.55838"
       style="font-style:italic;font-variant:normal;font-weight:600;font-stretch:normal;font-size:3.35058px;line-height:1.25;font-family:'Open Sans';-inkscape-font-specification:'Open Sans Semi-Bold Italic';fill:#4d4d4d;fill-opacity:1;stroke:none;stroke-width:0.239498"
       xml:space="preserve"><tspan
         style="font-style:italic;font-variant:normal;font-weight:600;font-stretch:normal;font-size:3.35058px;font-family:'Open Sans';-inkscape-font-specification:'Open Sans Semi-Bold Italic';fill:#4d4d4d;fill-opacity:1;stroke-width:0.239498"
         y="71.492294"
         x="-143.55838"
         id="tspan908"
         sodipodi:role="line">bitcoin mixer using Ethereum </tspan></text>
  </g>
</svg>
